<svg xmlns="http://www.w3.org/2000/svg" viewBox="0 0 360.65 67.66"><defs><style>.cls-1{fill:#fff;}</style></defs><title>Asset 2</title><g id="Layer_2" data-name="Layer 2"><g id="Layer_1-2" data-name="Layer 1"><path class="cls-1" d="M31.28,12a35.55,35.55,0,0,0-6.05-.66c-4.35,0-4.63,1.89-4.63,4.91v5.39H31.47l-.95,11.15H20.6V66.72H7V32.79H0V21.64H7v-6.9C7,5.29,11.43,0,22.59,0A47.83,47.83,0,0,1,33,1.32Z"/><path class="cls-1" d="M28.29,49.05V38.37c0-9.45,4.44-18.62,20.79-18.62s20.79,9.17,20.79,18.62V49.05c0,9.44-4.44,18.61-20.79,18.61S28.29,58.49,28.29,49.05Zm28,.37V38c0-4.35-2.27-6.81-7.18-6.81S41.9,33.64,41.9,38V49.42c0,4.35,2.26,6.81,7.18,6.81S56.26,53.77,56.26,49.42Z"/><path class="cls-1" d="M99.63,66.71V36.29c0-2.08-.95-3.31-3.31-3.31s-7,1.7-9.92,3.31V66.71H72.79v-46H82.9l1.42,3.5a46.48,46.48,0,0,1,18.33-4.44c4.06,0,6.8,1.61,8.41,4.44a44.16,44.16,0,0,1,18.43-4.44c7.84,0,10.58,5.86,10.58,14.74V66.72H126.46V36.29c0-2.08-.94-3.31-3.3-3.31s-7,1.7-9.93,3.31V66.71Z"/><path class="cls-1" d="M169.72,66.71V36.29c0-2.08-.94-3.31-3.31-3.31s-7,1.7-9.92,3.31V66.71h-13.6v-46H153l1.41,3.5a46.49,46.49,0,0,1,18.34-4.44c4.06,0,6.8,1.61,8.41,4.44a44.08,44.08,0,0,1,18.42-4.44c7.85,0,10.59,5.86,10.59,14.74V66.72H196.56V36.29c0-2.08-.95-3.31-3.31-3.31s-7,1.7-9.92,3.31V66.71Z"/><path class="cls-1" d="M226.22,48.48V49.8c0,5.29,2.08,6.71,8.32,6.71a54.19,54.19,0,0,0,14-2l2,10.2a54.89,54.89,0,0,1-17.29,2.93c-14.93,0-20.6-7.37-20.6-18.71V38.18c0-9.93,4.44-18.43,19.75-18.43S251,28.82,251,38.84v9.64Zm11.91-12.19c0-3.22-.94-5.86-5.67-5.86s-6.23,2.64-6.23,5.86v2h11.9v-2Z"/><path class="cls-1" d="M280.74,66.71V36.29c0-2.08-.94-3.31-3.31-3.31s-7,1.7-9.92,3.31V66.71h-13.6v-46H264l1.41,3.5a46.49,46.49,0,0,1,18.34-4.44c7.84,0,10.58,5.86,10.58,14.74V66.72H280.74Z"/><path class="cls-1" d="M315.57,67.66c-8.79,0-13.89-3.31-13.89-11.81V31.66h-6.24v-11h6.24v-11l13.6-1.89V20.69h10.49l-.75,11h-9.74V54c0,1.89,1.14,2.55,2.84,2.55a18.85,18.85,0,0,0,5.67-.85l1.6,10.3A32,32,0,0,1,315.57,67.66Z"/><path class="cls-1" d="M343.55,67.66a61.46,61.46,0,0,1-16.73-2.74L329,54.81a50.14,50.14,0,0,0,13.89,2.08c4.07,0,4.73-1.14,4.73-3.88,0-2.93-.1-3.3-7.47-5.1C329,45.17,328,42.15,328,33.55c0-9.74,3.78-13.8,17.58-13.8a67.94,67.94,0,0,1,14,1.51l-1.23,10.59a76.6,76.6,0,0,0-12.67-1.33c-4,0-4.91,1-4.91,3.12,0,2.84.38,3.21,5.86,4.44C359.7,41,360.65,43.85,360.65,53,360.65,62.46,356.68,67.66,343.55,67.66Z"/></g></g></svg>